REM DIRINDEX 1\2\4,1\2\5,1\2\6,1\3\7,1\3\8,1\3\9,1\3\10
REM DIRNAME folder01,folder02,folder03,folder04,folder05,folder06,folder07,folder08,folder09,folder10
TITLE ""
FILE "a_112.mp3" MP3
  TRACK 01 AUDIO
    TITLE "0:"
    INDEX 01 00:00:00
  TRACK 02 AUDIO
    TITLE "4:cjc057_01624"
    INDEX 01 00:00:13
  TRACK 03 AUDIO
    TITLE "0:"
    INDEX 01 00:01:38
  TRACK 04 AUDIO
    TITLE "5:cjc057_01625"
    INDEX 01 00:01:68
  TRACK 05 AUDIO
    TITLE "0:"
    INDEX 01 00:05:09
  TRACK 06 AUDIO
    TITLE "4:cjc057_01626"
    INDEX 01 00:06:10
  TRACK 07 AUDIO
    TITLE "0:"
    INDEX 01 00:07:54
  TRACK 08 AUDIO
    TITLE "5:cjc057_01627"
    INDEX 01 00:08:09
  TRACK 09 AUDIO
    TITLE "0:"
    INDEX 01 00:10:33
  TRACK 10 AUDIO
    TITLE "4:cjc057_01628"
    INDEX 01 00:11:35
  TRACK 11 AUDIO
    TITLE "0:"
    INDEX 01 00:13:16
  TRACK 12 AUDIO
    TITLE "5:cjc057_01629"
    INDEX 01 00:13:43
  TRACK 13 AUDIO
    TITLE "0:"
    INDEX 01 00:17:23
  TRACK 14 AUDIO
    TITLE "4:cjc057_01630"
    INDEX 01 00:18:27
  TRACK 15 AUDIO
    TITLE "0:"
    INDEX 01 00:19:50
  TRACK 16 AUDIO
    TITLE "5:cjc057_01631"
    INDEX 01 00:20:04
  TRACK 17 AUDIO
    TITLE "0:"
    INDEX 01 00:22:40
  TRACK 18 AUDIO
    TITLE "4:cjc057_01632"
    INDEX 01 00:23:44
  TRACK 19 AUDIO
    TITLE "0:"
    INDEX 01 00:25:19
  TRACK 20 AUDIO
    TITLE "5:cjc057_01633"
    INDEX 01 00:25:48
  TRACK 21 AUDIO
    TITLE "0:"
    INDEX 01 00:27:63
  TRACK 22 AUDIO
    TITLE "4:cjc057_01634"
    INDEX 01 00:28:66
  TRACK 23 AUDIO
    TITLE "0:"
    INDEX 01 00:30:38
  TRACK 24 AUDIO
    TITLE "5:cjc057_01635"
    INDEX 01 00:30:67
  TRACK 25 AUDIO
    TITLE "0:"
    INDEX 01 00:33:17
  TRACK 26 AUDIO
    TITLE "4:cjc057_01636"
    INDEX 01 00:34:20
  TRACK 27 AUDIO
    TITLE "0:"
    INDEX 01 00:36:01
  TRACK 28 AUDIO
    TITLE "5:cjc057_01637"
    INDEX 01 00:36:31
  TRACK 29 AUDIO
    TITLE "0:"
    INDEX 01 00:40:68
  TRACK 30 AUDIO
    TITLE "4:cjc057_01638"
    INDEX 01 00:41:73
  TRACK 31 AUDIO
    TITLE "0:"
    INDEX 01 00:43:42
  TRACK 32 AUDIO
    TITLE "5:cjc057_01639"
    INDEX 01 00:43:70
  TRACK 33 AUDIO
    TITLE "0:"
    INDEX 01 00:45:24
  TRACK 34 AUDIO
    TITLE "4:cjc057_01640"
    INDEX 01 00:46:27
  TRACK 35 AUDIO
    TITLE "0:"
    INDEX 01 00:47:54
  TRACK 36 AUDIO
    TITLE "5:cjc057_01641"
    INDEX 01 00:48:08
  TRACK 37 AUDIO
    TITLE "0:"
    INDEX 01 00:51:69
  TRACK 38 AUDIO
    TITLE "4:cjc057_01642"
    INDEX 01 00:52:73
  TRACK 39 AUDIO
    TITLE "0:"
    INDEX 01 00:54:29
  TRACK 40 AUDIO
    TITLE "5:cjc057_01643"
    INDEX 01 00:54:58
  TRACK 41 AUDIO
    TITLE "0:"
    INDEX 01 00:57:66
  TRACK 42 AUDIO
    TITLE "4:cjc057_01644"
    INDEX 01 00:58:71
  TRACK 43 AUDIO
    TITLE "0:"
    INDEX 01 01:00:47
  TRACK 44 AUDIO
    TITLE "5:cjc057_01645"
    INDEX 01 01:01:01
  TRACK 45 AUDIO
    TITLE "0:"
    INDEX 01 01:03:37
  TRACK 46 AUDIO
    TITLE "4:cjc057_01646"
    INDEX 01 01:04:41
  TRACK 47 AUDIO
    TITLE "0:"
    INDEX 01 01:05:54
  TRACK 48 AUDIO
    TITLE "5:cjc057_01647"
    INDEX 01 01:06:06
  TRACK 49 AUDIO
    TITLE "0:"
    INDEX 01 01:08:38
  TRACK 50 AUDIO
    TITLE "4:cjc057_01648"
    INDEX 01 01:09:44
  TRACK 51 AUDIO
    TITLE "0:"
    INDEX 01 01:10:73
  TRACK 52 AUDIO
    TITLE "5:cjc057_01649"
    INDEX 01 01:11:25
  TRACK 53 AUDIO
    TITLE "0:"
    INDEX 01 01:13:59
  TRACK 54 AUDIO
    TITLE "4:cjc057_01650"
    INDEX 01 01:14:61
  TRACK 55 AUDIO
    TITLE "0:"
    INDEX 01 01:16:30
  TRACK 56 AUDIO
    TITLE "5:cjc057_01651"
    INDEX 01 01:16:58
  TRACK 57 AUDIO
    TITLE "0:"
    INDEX 01 01:18:00
  TRACK 58 AUDIO
    TITLE "4:cjc057_01652"
    INDEX 01 01:19:01
  TRACK 59 AUDIO
    TITLE "0:"
    INDEX 01 01:20:42
  TRACK 60 AUDIO
    TITLE "5:cjc057_01653"
    INDEX 01 01:20:67
  TRACK 61 AUDIO
    TITLE "0:"
    INDEX 01 01:23:28
  TRACK 62 AUDIO
    TITLE "4:cjc057_01654"
    INDEX 01 01:24:34
  TRACK 63 AUDIO
    TITLE "0:"
    INDEX 01 01:26:01
  TRACK 64 AUDIO
    TITLE "5:cjc057_01655"
    INDEX 01 01:26:30
  TRACK 65 AUDIO
    TITLE "0:"
    INDEX 01 01:28:22
  TRACK 66 AUDIO
    TITLE "4:cjc057_01656"
    INDEX 01 01:29:25
  TRACK 67 AUDIO
    TITLE "0:"
    INDEX 01 01:30:58
  TRACK 68 AUDIO
    TITLE "5:cjc057_01657"
    INDEX 01 01:31:12
  TRACK 69 AUDIO
    TITLE "0:"
    INDEX 01 01:34:18
  TRACK 70 AUDIO
    TITLE "4:cjc057_01658"
    INDEX 01 01:35:22
  TRACK 71 AUDIO
    TITLE "0:"
    INDEX 01 01:36:39
  TRACK 72 AUDIO
    TITLE "5:cjc057_01659"
    INDEX 01 01:36:66
  TRACK 73 AUDIO
    TITLE "0:"
    INDEX 01 01:38:61
  TRACK 74 AUDIO
    TITLE "4:cjc057_01660"
    INDEX 01 01:39:66
  TRACK 75 AUDIO
    TITLE "0:"
    INDEX 01 01:41:28
  TRACK 76 AUDIO
    TITLE "5:cjc057_01661"
    INDEX 01 01:41:57
  TRACK 77 AUDIO
    TITLE "0:"
    INDEX 01 01:44:11
  TRACK 78 AUDIO
    TITLE "4:cjc057_01662"
    INDEX 01 01:45:14
  TRACK 79 AUDIO
    TITLE "0:"
    INDEX 01 01:46:51
  TRACK 80 AUDIO
    TITLE "5:cjc057_01663"
    INDEX 01 01:47:05
  TRACK 81 AUDIO
    TITLE "0:"
    INDEX 01 01:50:31
  TRACK 82 AUDIO
    TITLE "4:cjc057_01664"
    INDEX 01 01:51:34
  TRACK 83 AUDIO
    TITLE "0:"
    INDEX 01 01:52:73
  TRACK 84 AUDIO
    TITLE "5:cjc057_01665"
    INDEX 01 01:53:27
  TRACK 85 AUDIO
    TITLE "0:"
    INDEX 01 01:55:42
  TRACK 86 AUDIO
    TITLE "4:cjc057_01666"
    INDEX 01 01:56:45
  TRACK 87 AUDIO
    TITLE "0:"
    INDEX 01 01:57:68
  TRACK 88 AUDIO
    TITLE "5:cjc057_01667"
    INDEX 01 01:58:23
  TRACK 89 AUDIO
    TITLE "0:"
    INDEX 01 01:59:48
  TRACK 90 AUDIO
    TITLE "4:cjc057_01668"
    INDEX 01 02:00:51
  TRACK 91 AUDIO
    TITLE "0:"
    INDEX 01 02:02:01
  TRACK 92 AUDIO
    TITLE "5:cjc057_01669"
    INDEX 01 02:02:30
  TRACK 93 AUDIO
    TITLE "0:"
    INDEX 01 02:06:08
  TRACK 94 AUDIO
    TITLE "4:cjc057_01670"
    INDEX 01 02:07:14
  TRACK 95 AUDIO
    TITLE "0:"
    INDEX 01 02:08:43
  TRACK 96 AUDIO
    TITLE "5:cjc057_01671"
    INDEX 01 02:08:72
  TRACK 97 AUDIO
    TITLE "0:"
    INDEX 01 02:10:49
  TRACK 98 AUDIO
    TITLE "4:cjc057_01672"
    INDEX 01 02:11:53
  TRACK 99 AUDIO
    TITLE "0:"
    INDEX 01 02:13:01
  TRACK 100 AUDIO
    TITLE "5:cjc057_01673"
    INDEX 01 02:13:30
  TRACK 101 AUDIO
    TITLE "0:"
    INDEX 01 02:15:49
  TRACK 102 AUDIO
    TITLE "4:cjc057_01674"
    INDEX 01 02:16:52
  TRACK 103 AUDIO
    TITLE "0:"
    INDEX 01 02:17:67
  TRACK 104 AUDIO
    TITLE "5:cjc057_01675"
    INDEX 01 02:18:21
  TRACK 105 AUDIO
    TITLE "0:"
    INDEX 01 02:19:35
  TRACK 106 AUDIO
    TITLE "4:cjc057_01676"
    INDEX 01 02:20:40
  TRACK 107 AUDIO
    TITLE "0:"
    INDEX 01 02:22:02
  TRACK 108 AUDIO
    TITLE "5:cjc057_01677"
    INDEX 01 02:22:31
  TRACK 109 AUDIO
    TITLE "0:"
    INDEX 01 02:25:31
  TRACK 110 AUDIO
    TITLE "4:cjc057_01678"
    INDEX 01 02:26:35
  TRACK 111 AUDIO
    TITLE "0:"
    INDEX 01 02:27:67
  TRACK 112 AUDIO
    TITLE "5:cjc057_01679"
    INDEX 01 02:28:14
  TRACK 113 AUDIO
    TITLE "0:"
    INDEX 01 02:29:29
